<mxfile host="app.diagrams.net" modified="2024-07-02T18:10:52.232Z" agent="Mozilla/5.0 (Macintosh; Intel Mac OS X 10_15_7) AppleWebKit/537.36 (KHTML, like Gecko) Chrome/126.0.0.0 Safari/537.36" etag="FX9CdGOCxMUWdRfetJ9k" version="24.6.4" type="device">
  <diagram name="Page-1" id="5bnjxatqjOuaAF2oe5hL">
    <mxGraphModel dx="954" dy="642" grid="1" gridSize="10" guides="1" tooltips="1" connect="1" arrows="1" fold="1" page="1" pageScale="1" pageWidth="850" pageHeight="1100" math="0" shadow="0">
      <root>
        <mxCell id="0" />
        <mxCell id="1" parent="0" />
        <mxCell id="5EaqwkNcLw-vjFIcxztH-16" value="&amp;nbsp; &amp;nbsp;[singe task unit completion]" style="rounded=1;whiteSpace=wrap;html=1;fillColor=#dae8fc;strokeColor=#6c8ebf;fontSize=10;verticalAlign=top;align=left;fontColor=#007FFF;arcSize=3;opacity=40;fontStyle=2" parent="1" vertex="1">
          <mxGeometry x="120" y="306.5" width="390" height="266.5" as="geometry" />
        </mxCell>
        <mxCell id="3-yWvNHymt2EtWyProw8-1" value="" style="endArrow=none;html=1;rounded=0;strokeWidth=2;strokeColor=#CCCCCC;" parent="1" edge="1">
          <mxGeometry width="50" height="50" relative="1" as="geometry">
            <mxPoint x="240" y="790" as="sourcePoint" />
            <mxPoint x="240" y="60" as="targetPoint" />
          </mxGeometry>
        </mxCell>
        <mxCell id="3-yWvNHymt2EtWyProw8-2" value="" style="endArrow=none;html=1;rounded=0;strokeWidth=2;strokeColor=#CCCCCC;" parent="1" edge="1">
          <mxGeometry width="50" height="50" relative="1" as="geometry">
            <mxPoint x="350" y="790" as="sourcePoint" />
            <mxPoint x="350" y="60" as="targetPoint" />
          </mxGeometry>
        </mxCell>
        <mxCell id="3-yWvNHymt2EtWyProw8-4" value="" style="endArrow=none;html=1;rounded=0;strokeWidth=2;strokeColor=#CCCCCC;" parent="1" edge="1">
          <mxGeometry width="50" height="50" relative="1" as="geometry">
            <mxPoint x="450" y="790" as="sourcePoint" />
            <mxPoint x="450" y="60" as="targetPoint" />
          </mxGeometry>
        </mxCell>
        <mxCell id="3-yWvNHymt2EtWyProw8-5" value="Mephisto instance" style="text;html=1;align=center;verticalAlign=middle;whiteSpace=wrap;rounded=1;fillColor=#dae8fc;strokeColor=#6c8ebf;fontSize=10;" parent="1" vertex="1">
          <mxGeometry x="210" y="20" width="60" height="30" as="geometry" />
        </mxCell>
        <mxCell id="3-yWvNHymt2EtWyProw8-6" value="Architect&lt;br style=&quot;font-size: 10px;&quot;&gt;server" style="text;html=1;align=center;verticalAlign=middle;whiteSpace=wrap;rounded=1;fillColor=#dae8fc;strokeColor=#6c8ebf;fontSize=10;" parent="1" vertex="1">
          <mxGeometry x="320" y="20" width="60" height="30" as="geometry" />
        </mxCell>
        <mxCell id="3-yWvNHymt2EtWyProw8-8" value="Crowd&lt;br&gt;Provider" style="text;html=1;align=center;verticalAlign=middle;whiteSpace=wrap;rounded=1;fillColor=#dae8fc;strokeColor=#6c8ebf;fontSize=10;" parent="1" vertex="1">
          <mxGeometry x="420" y="20" width="60" height="30" as="geometry" />
        </mxCell>
        <mxCell id="3-yWvNHymt2EtWyProw8-9" value="" style="endArrow=classic;html=1;rounded=0;" parent="1" edge="1">
          <mxGeometry width="50" height="50" relative="1" as="geometry">
            <mxPoint x="240" y="269" as="sourcePoint" />
            <mxPoint x="140" y="269" as="targetPoint" />
          </mxGeometry>
        </mxCell>
        <mxCell id="3-yWvNHymt2EtWyProw8-10" value="Mephisto DB" style="text;html=1;align=center;verticalAlign=middle;whiteSpace=wrap;rounded=1;fillColor=#dae8fc;strokeColor=#6c8ebf;fontSize=10;" parent="1" vertex="1">
          <mxGeometry x="110" y="20" width="60" height="30" as="geometry" />
        </mxCell>
        <mxCell id="3-yWvNHymt2EtWyProw8-11" value="" style="endArrow=none;html=1;rounded=0;strokeWidth=2;strokeColor=#CCCCCC;" parent="1" edge="1">
          <mxGeometry width="50" height="50" relative="1" as="geometry">
            <mxPoint x="140" y="790" as="sourcePoint" />
            <mxPoint x="140" y="60" as="targetPoint" />
          </mxGeometry>
        </mxCell>
        <mxCell id="3-yWvNHymt2EtWyProw8-12" value="create task units" style="text;html=1;align=center;verticalAlign=middle;whiteSpace=wrap;rounded=0;fontSize=10;" parent="1" vertex="1">
          <mxGeometry x="150" y="249" width="81" height="17" as="geometry" />
        </mxCell>
        <mxCell id="3-yWvNHymt2EtWyProw8-13" value="" style="endArrow=classic;html=1;rounded=0;" parent="1" edge="1">
          <mxGeometry width="50" height="50" relative="1" as="geometry">
            <mxPoint x="240" y="186" as="sourcePoint" />
            <mxPoint x="350" y="186" as="targetPoint" />
          </mxGeometry>
        </mxCell>
        <mxCell id="3-yWvNHymt2EtWyProw8-14" value="upload React app" style="text;html=1;align=center;verticalAlign=middle;whiteSpace=wrap;rounded=0;fontSize=10;" parent="1" vertex="1">
          <mxGeometry x="249" y="174" width="85" height="5" as="geometry" />
        </mxCell>
        <mxCell id="3-yWvNHymt2EtWyProw8-16" value="build React&lt;br&gt;app" style="text;html=1;align=center;verticalAlign=bottom;whiteSpace=wrap;rounded=0;fontSize=10;fillColor=#f5f5f5;fontColor=#333333;strokeColor=#666666;" parent="1" vertex="1">
          <mxGeometry x="210" y="96" width="60" height="29" as="geometry" />
        </mxCell>
        <mxCell id="3-yWvNHymt2EtWyProw8-17" value="launch&lt;br&gt;React app" style="text;html=1;align=center;verticalAlign=bottom;whiteSpace=wrap;rounded=0;fontSize=10;fillColor=#f5f5f5;fontColor=#333333;strokeColor=#666666;" parent="1" vertex="1">
          <mxGeometry x="321" y="198" width="60" height="28" as="geometry" />
        </mxCell>
        <mxCell id="3-yWvNHymt2EtWyProw8-21" value="" style="endArrow=classic;html=1;rounded=0;" parent="1" edge="1">
          <mxGeometry width="50" height="50" relative="1" as="geometry">
            <mxPoint x="241" y="247" as="sourcePoint" />
            <mxPoint x="450" y="247" as="targetPoint" />
          </mxGeometry>
        </mxCell>
        <mxCell id="3-yWvNHymt2EtWyProw8-22" value="publish task" style="text;html=1;align=center;verticalAlign=middle;whiteSpace=wrap;rounded=0;fontSize=10;" parent="1" vertex="1">
          <mxGeometry x="253" y="228" width="68" height="17" as="geometry" />
        </mxCell>
        <mxCell id="3-yWvNHymt2EtWyProw8-23" value="" style="endArrow=classic;html=1;rounded=0;" parent="1" edge="1">
          <mxGeometry width="50" height="50" relative="1" as="geometry">
            <mxPoint x="240" y="346" as="sourcePoint" />
            <mxPoint x="450" y="346" as="targetPoint" />
          </mxGeometry>
        </mxCell>
        <mxCell id="3-yWvNHymt2EtWyProw8-24" value="launch additional task units as needed" style="text;html=1;align=center;verticalAlign=middle;whiteSpace=wrap;rounded=0;fontSize=10;" parent="1" vertex="1">
          <mxGeometry x="260" y="327" width="174" height="17" as="geometry" />
        </mxCell>
        <mxCell id="3-yWvNHymt2EtWyProw8-27" value="" style="endArrow=classic;html=1;rounded=0;" parent="1" edge="1">
          <mxGeometry width="50" height="50" relative="1" as="geometry">
            <mxPoint x="239" y="84" as="sourcePoint" />
            <mxPoint x="140" y="84" as="targetPoint" />
          </mxGeometry>
        </mxCell>
        <mxCell id="3-yWvNHymt2EtWyProw8-28" value="create TaskRun" style="text;html=1;align=center;verticalAlign=middle;whiteSpace=wrap;rounded=0;fontSize=10;" parent="1" vertex="1">
          <mxGeometry x="148" y="64" width="88" height="17" as="geometry" />
        </mxCell>
        <mxCell id="3-yWvNHymt2EtWyProw8-29" value="" style="endArrow=classic;html=1;rounded=0;" parent="1" edge="1">
          <mxGeometry width="50" height="50" relative="1" as="geometry">
            <mxPoint x="240" y="157" as="sourcePoint" />
            <mxPoint x="350" y="157" as="targetPoint" />
          </mxGeometry>
        </mxCell>
        <mxCell id="3-yWvNHymt2EtWyProw8-30" value="provision infrastructure" style="text;html=1;align=center;verticalAlign=middle;whiteSpace=wrap;rounded=0;fontSize=10;" parent="1" vertex="1">
          <mxGeometry x="250" y="133" width="85" height="16" as="geometry" />
        </mxCell>
        <mxCell id="3-yWvNHymt2EtWyProw8-31" value="" style="endArrow=classic;html=1;rounded=0;" parent="1" edge="1">
          <mxGeometry width="50" height="50" relative="1" as="geometry">
            <mxPoint x="448" y="431" as="sourcePoint" />
            <mxPoint x="350" y="431" as="targetPoint" />
          </mxGeometry>
        </mxCell>
        <mxCell id="3-yWvNHymt2EtWyProw8-32" value="worker opens&lt;br&gt;task unit page&lt;br&gt;on Provider platform" style="text;html=1;align=center;verticalAlign=middle;whiteSpace=wrap;rounded=0;fontSize=10;fillColor=#f5f5f5;fontColor=#333333;strokeColor=#666666;" parent="1" vertex="1">
          <mxGeometry x="398.5" y="360" width="98" height="44" as="geometry" />
        </mxCell>
        <mxCell id="3-yWvNHymt2EtWyProw8-35" value="" style="endArrow=classic;html=1;rounded=0;dashed=1;startArrow=classic;startFill=1;exitX=0;exitY=0.5;exitDx=0;exitDy=0;" parent="1" source="5EaqwkNcLw-vjFIcxztH-20" edge="1">
          <mxGeometry width="50" height="50" relative="1" as="geometry">
            <mxPoint x="308.5" y="462.25" as="sourcePoint" />
            <mxPoint x="240" y="461" as="targetPoint" />
          </mxGeometry>
        </mxCell>
        <mxCell id="3-yWvNHymt2EtWyProw8-36" value="server&lt;br&gt;callbacks&lt;br&gt;(if needed)" style="text;html=1;align=center;verticalAlign=middle;whiteSpace=wrap;rounded=0;fontSize=10;" parent="1" vertex="1">
          <mxGeometry x="250" y="416" width="53" height="41" as="geometry" />
        </mxCell>
        <mxCell id="3-yWvNHymt2EtWyProw8-37" value="" style="endArrow=classic;html=1;rounded=0;" parent="1" edge="1">
          <mxGeometry width="50" height="50" relative="1" as="geometry">
            <mxPoint x="350" y="505" as="sourcePoint" />
            <mxPoint x="240" y="505" as="targetPoint" />
          </mxGeometry>
        </mxCell>
        <mxCell id="3-yWvNHymt2EtWyProw8-38" value="worker clicks &quot;Submit&quot;" style="text;html=1;align=center;verticalAlign=middle;whiteSpace=wrap;rounded=0;fontSize=10;" parent="1" vertex="1">
          <mxGeometry x="245" y="490" width="103" height="10" as="geometry" />
        </mxCell>
        <mxCell id="3-yWvNHymt2EtWyProw8-41" value="" style="endArrow=classic;html=1;rounded=0;" parent="1" edge="1">
          <mxGeometry width="50" height="50" relative="1" as="geometry">
            <mxPoint x="240" y="534" as="sourcePoint" />
            <mxPoint x="140" y="534" as="targetPoint" />
          </mxGeometry>
        </mxCell>
        <mxCell id="3-yWvNHymt2EtWyProw8-42" value="save worker input &amp;amp; update unit status" style="text;html=1;align=center;verticalAlign=middle;whiteSpace=wrap;rounded=0;fontSize=10;" parent="1" vertex="1">
          <mxGeometry x="144" y="509" width="90" height="17" as="geometry" />
        </mxCell>
        <mxCell id="3-yWvNHymt2EtWyProw8-43" value="" style="endArrow=classic;html=1;rounded=0;" parent="1" edge="1">
          <mxGeometry width="50" height="50" relative="1" as="geometry">
            <mxPoint x="241" y="561" as="sourcePoint" />
            <mxPoint x="450" y="561" as="targetPoint" />
          </mxGeometry>
        </mxCell>
        <mxCell id="3-yWvNHymt2EtWyProw8-44" value="set task unit status&lt;br&gt;to completed" style="text;html=1;align=center;verticalAlign=middle;whiteSpace=wrap;rounded=0;fontSize=10;" parent="1" vertex="1">
          <mxGeometry x="235" y="534" width="103" height="22" as="geometry" />
        </mxCell>
        <mxCell id="3-yWvNHymt2EtWyProw8-46" value="periodic polling (and updating)&lt;br&gt;of launched task units" style="text;html=1;align=center;verticalAlign=middle;whiteSpace=wrap;rounded=0;fontSize=10;" parent="1" vertex="1">
          <mxGeometry x="267" y="265" width="159" height="20" as="geometry" />
        </mxCell>
        <mxCell id="3-yWvNHymt2EtWyProw8-50" value="" style="endArrow=classic;html=1;rounded=0;exitX=1;exitY=0.5;exitDx=0;exitDy=0;" parent="1" edge="1">
          <mxGeometry width="50" height="50" relative="1" as="geometry">
            <mxPoint x="240" y="681" as="sourcePoint" />
            <mxPoint x="450" y="681" as="targetPoint" />
          </mxGeometry>
        </mxCell>
        <mxCell id="3-yWvNHymt2EtWyProw8-51" value="stop task on provider platform" style="text;html=1;align=center;verticalAlign=middle;whiteSpace=wrap;rounded=0;fontSize=10;" parent="1" vertex="1">
          <mxGeometry x="289" y="665" width="135" height="12" as="geometry" />
        </mxCell>
        <mxCell id="3-yWvNHymt2EtWyProw8-52" value="" style="endArrow=classic;html=1;rounded=0;" parent="1" edge="1">
          <mxGeometry width="50" height="50" relative="1" as="geometry">
            <mxPoint x="240" y="738" as="sourcePoint" />
            <mxPoint x="350" y="738" as="targetPoint" />
          </mxGeometry>
        </mxCell>
        <mxCell id="3-yWvNHymt2EtWyProw8-53" value="shut down infrastructure" style="text;html=1;align=center;verticalAlign=middle;whiteSpace=wrap;rounded=0;fontSize=10;" parent="1" vertex="1">
          <mxGeometry x="253" y="716" width="85" height="13" as="geometry" />
        </mxCell>
        <mxCell id="3-yWvNHymt2EtWyProw8-54" value="" style="endArrow=classic;html=1;rounded=0;" parent="1" edge="1">
          <mxGeometry width="50" height="50" relative="1" as="geometry">
            <mxPoint x="240" y="713" as="sourcePoint" />
            <mxPoint x="140" y="713" as="targetPoint" />
          </mxGeometry>
        </mxCell>
        <mxCell id="3-yWvNHymt2EtWyProw8-55" value="set Task status to completed" style="text;html=1;align=center;verticalAlign=middle;whiteSpace=wrap;rounded=0;fontSize=10;" parent="1" vertex="1">
          <mxGeometry x="144" y="688" width="90" height="17" as="geometry" />
        </mxCell>
        <mxCell id="3-yWvNHymt2EtWyProw8-62" value="shutdown&lt;br&gt;Mephisto instance" style="text;html=1;align=center;verticalAlign=bottom;whiteSpace=wrap;rounded=0;fontSize=10;fillColor=#f5f5f5;fontColor=#333333;strokeColor=#666666;spacing=2;" parent="1" vertex="1">
          <mxGeometry x="183" y="753" width="110" height="27" as="geometry" />
        </mxCell>
        <mxCell id="5EaqwkNcLw-vjFIcxztH-18" value="" style="endArrow=classic;html=1;rounded=0;" parent="1" edge="1">
          <mxGeometry width="50" height="50" relative="1" as="geometry">
            <mxPoint x="241" y="290" as="sourcePoint" />
            <mxPoint x="450" y="290" as="targetPoint" />
          </mxGeometry>
        </mxCell>
        <mxCell id="5EaqwkNcLw-vjFIcxztH-19" value="click React app URL" style="text;html=1;align=center;verticalAlign=middle;whiteSpace=wrap;rounded=0;fontSize=10;" parent="1" vertex="1">
          <mxGeometry x="350" y="411" width="102" height="17" as="geometry" />
        </mxCell>
        <mxCell id="5EaqwkNcLw-vjFIcxztH-20" value="worker completes&lt;br&gt;launched task unit in React app" style="text;html=1;align=center;verticalAlign=middle;whiteSpace=wrap;rounded=0;fontSize=10;fillColor=#f5f5f5;fontColor=#333333;strokeColor=#666666;" parent="1" vertex="1">
          <mxGeometry x="308.5" y="443" width="91.5" height="36.5" as="geometry" />
        </mxCell>
        <mxCell id="5EaqwkNcLw-vjFIcxztH-33" style="edgeStyle=orthogonalEdgeStyle;rounded=1;orthogonalLoop=1;jettySize=auto;html=1;entryX=0;entryY=0.058;entryDx=0;entryDy=0;entryPerimeter=0;curved=0;" parent="1" source="5EaqwkNcLw-vjFIcxztH-22" target="5EaqwkNcLw-vjFIcxztH-16" edge="1">
          <mxGeometry relative="1" as="geometry">
            <mxPoint x="60" y="330" as="targetPoint" />
            <Array as="points">
              <mxPoint x="100" y="621" />
              <mxPoint x="100" y="322" />
            </Array>
          </mxGeometry>
        </mxCell>
        <mxCell id="5EaqwkNcLw-vjFIcxztH-22" value="all&lt;br&gt;task units&lt;br&gt;completed?" style="rhombus;whiteSpace=wrap;html=1;fontSize=10;fillColor=#f5f5f5;fontColor=#333333;strokeColor=#666666;" parent="1" vertex="1">
          <mxGeometry x="200" y="581" width="80" height="80" as="geometry" />
        </mxCell>
        <mxCell id="5EaqwkNcLw-vjFIcxztH-24" value="YES" style="text;html=1;align=center;verticalAlign=middle;whiteSpace=wrap;rounded=0;fontSize=10;" parent="1" vertex="1">
          <mxGeometry x="244" y="660" width="19" height="13" as="geometry" />
        </mxCell>
        <mxCell id="5EaqwkNcLw-vjFIcxztH-27" value="&lt;span style=&quot;color: rgb(51, 51, 51);&quot;&gt;NO&lt;/span&gt;" style="text;html=1;align=center;verticalAlign=middle;whiteSpace=wrap;rounded=0;fontSize=10;" parent="1" vertex="1">
          <mxGeometry x="175" y="605.5" width="21" height="13" as="geometry" />
        </mxCell>
        <mxCell id="5EaqwkNcLw-vjFIcxztH-29" value="Mephisto instance" style="text;html=1;align=center;verticalAlign=middle;whiteSpace=wrap;rounded=1;fillColor=#dae8fc;strokeColor=#6c8ebf;fontSize=10;" parent="1" vertex="1">
          <mxGeometry x="210" y="800" width="60" height="30" as="geometry" />
        </mxCell>
        <mxCell id="5EaqwkNcLw-vjFIcxztH-30" value="Architect&lt;br style=&quot;font-size: 10px;&quot;&gt;server" style="text;html=1;align=center;verticalAlign=middle;whiteSpace=wrap;rounded=1;fillColor=#dae8fc;strokeColor=#6c8ebf;fontSize=10;" parent="1" vertex="1">
          <mxGeometry x="320" y="800" width="60" height="30" as="geometry" />
        </mxCell>
        <mxCell id="5EaqwkNcLw-vjFIcxztH-31" value="Crowd&lt;br&gt;Provider" style="text;html=1;align=center;verticalAlign=middle;whiteSpace=wrap;rounded=1;fillColor=#dae8fc;strokeColor=#6c8ebf;fontSize=10;" parent="1" vertex="1">
          <mxGeometry x="420" y="800" width="60" height="30" as="geometry" />
        </mxCell>
        <mxCell id="5EaqwkNcLw-vjFIcxztH-32" value="Mephisto DB" style="text;html=1;align=center;verticalAlign=middle;whiteSpace=wrap;rounded=1;fillColor=#dae8fc;strokeColor=#6c8ebf;fontSize=10;" parent="1" vertex="1">
          <mxGeometry x="110" y="800" width="60" height="30" as="geometry" />
        </mxCell>
      </root>
    </mxGraphModel>
  </diagram>
</mxfile>
